<svg xmlns="http://www.w3.org/2000/svg" viewBox="0 0 64 64" enable-background="new 0 0 64 64"><path d="M57.6 13.704c-.956-.334-8.856-1.193-10.867-1.383-2.01-.19-8.09-.428-8.426-.57-.335-.144.814-9.303 1.15-9.542.334-.24 2.92-.048 3.16.143.238.192-.24 8.778-.145 8.92.096.144 1.005.478 1.293.24.287-.24.67-8.92.527-10.065S39.072.252 38.308.777c-.766.525-1.58 10.542-1.58 10.733 0 .19-6.368.048-6.703-.048-.335-.095.383-10.4-.048-11.162s-5.123.143-5.554.382c-.43.24-1.1 10.4-1.245 10.733-.144.334-6.607.095-9.43.24-2.826.142-5.507 1.478-6.273 2.29-.766.81-1.1 9.492-1.58 14.5-.478 5.01-1.675 8.777-1.867 12.975-.19 4.198.622 5.056 1.484 5.915s6.894.572 6.894.572-.287 1.622.048 1.956c.335.334 6.128.477 6.128.477s-3.59 12.307-3.59 12.928c0 .62 3.542.86 4.02.668.48-.19 1.15-2.1 1.533-2.91s4.31-11.115 4.31-11.115 5.122-.476 5.265-.476c.144 0 .19 4.39.383 4.866.192.477 4.07.286 4.404.095.335-.19.096-4.484.096-4.484l5.41.67s1.867 12.402 2.01 12.736c.145.334 2.92 0 3.448-.143s1.054.095 1.246-.477c.192-.572-1.34-11.4-1.34-11.4s.862.38 2.585-.096c1.725-.477 1.246-2.576 1.246-2.576s1.484.095 2.49.143c1.005.048 3.303.43 5.123-.62 1.818-1.05 1.292-1.86 1.435-5.677.144-3.816.91-17.84 1.293-23.23.382-5.392-1.39-5.202-2.347-5.536zM25.87 1.6c.073-.107 2.443-.716 2.802-.215s.395 9.946.108 9.946-4.13.073-4.13.073c0-.25 1.15-9.696 1.22-9.803zm-6.534 58.675c-.754 1.646-.898 2.254-1.005 2.254s-1.435-.144-1.435-.323 3.375-11.7 3.52-11.842c0 0 2.153-.25 2.333 0 .18.25-2.658 8.264-3.412 9.91zm13.968-7.192c-.25.036-1.58.25-1.58-.072 0-.32-.108-3.112-.072-3.29.042-.212 1.724.214 1.724.214s.18 3.114-.072 3.15zM45.44 61.85c-.144.035-2.083.178-2.118.07-.036-.106-1.652-11.197-1.652-11.197s2.585.322 2.62.5 1.294 10.59 1.15 10.626zm2.334-11.95c-.395.07-8.15-1.468-13.465-1.683s-7.865.143-13.43.394c-5.566.25-6.5.788-6.68.073-.18-.716.11-3.363.324-3.65.323-.428 1.33-.32 6.894-.106s12.675.823 16.84 1.11c4.165.285 9.55.428 9.695.68.145.248.216 3.11-.18 3.182zm9.12-15.85c-.25 2.075-.25 2.826-.25 2.826s-1.257.072-1.257.644.79 3.864.79 3.97c0 .108-.215 3.758-.215 3.65 0-.107-.79-6.118-1.185-6.19-.395-.07-1.15.573-1.077 1.074.072.5 1.76 6.225 1.58 6.44-.18.215-.25.358-.36.215-.107-.144-1.4-4.902-1.758-5.01-.36-.107-1.22.465-1.077.68s1.688 4.258 1.22 4.222c-.466-.036-1.4-.036-1.435-.215s-1.04-4.15-1.22-4.186c-.18-.035-1.006.108-.97.36.036.25 1.15 3.863 1.005 3.935-.144.072-.862.358-.898-.072-.036-.43-.97-4.58-1.185-4.687s-1.077-.072-1.005.143c.072.214.646 3.22.467 3.22h-.754s-.503-3.185-.898-3.4c-.395-.215-1.04.25-.97.537.073.286.576 3.04.432 3.04-.144 0-.97.073-.97-.07 0-.144-.61-2.827-1.076-2.9-.467-.07-1.077.717-1.077.717s1.042 2.218.683 2.182-.898-.036-.898-.036-.503-2.04-.862-2.04c-.36 0-.862.216-.862.43s.324 1.503.145 1.538-4.093-.43-11.92-.93c-7.83-.5-12.82-.68-14.076-.644s-1.832.5-1.976.894-.25 1.467-.25 1.467-2.55.75-4.274.43c-1.724-.323-2.047-1.432-2.37-4.366-.323-2.935 1.867-10.27 2.334-15.135.467-4.866 1.005-11.234 1.508-11.77.503-.538.826-1.29 6.032-1.396s10.7.035 17.343.035 8.653.394 13.896.93 10.34.322 10.305 2.47-.362 14.92-.613 16.995zM11.797 21.313c.395-.107.718-4.222.79-4.58.072-.358 3.232-.286 3.34-.286.107 0 .286-.93.143-1.288-.145-.36-3.663-.323-4.417.106-.754.43-.97 5.903-.97 5.903.036.18.718.25 1.113.143zm18.17-1.574c2.548.715 4.308-.86 4.308-.86s.898.18 2.01.322c1.114.143 1.94-.644 1.94-.644s.754.465 2.37 1.038c1.616.572 4.596.143 5.242-.18.646-.32.215-.786.108-.93-.108-.142-2.693.144-4.74-.178-2.047-.322-2.37-1.395-2.442-1.646-.072-.25-.79-.286-1.22.143-.432.43.18.86.214 1.002.036.143-.862.394-1.795.107-.933-.286-2.44-1.288-2.584-1.538-.144-.25-1.724.107-1.903.286s2.01 1.682 2.01 1.682-2.44.823-3.697.25c-1.257-.572-2.298-2.04-2.298-2.04-.18-.178-.862.216-.934.36-.072.142.86 2.11 3.41 2.825zm19.963-.752c-.432-.072-1.258.18-2.586 1.753-1.33 1.575-5.314 7.335-5.53 7.657s-1.724-2.218-3.16-3.685c-1.436-1.467-3.77-3.757-4.524-3.757s-6.032 2.934-6.032 2.934-.323-.18-.934-.86c-.61-.68-4.632-5.69-6.32-6.26-1.688-.573-3.088 3.505-4.2 5.866-1.114 2.36-5.136 8.91-5.136 8.91.395.822 1.257.32 1.83-.43.576-.75 6.716-12.63 7.29-12.808.575-.18 6.715 6.94 7.47 7.227.753.286 5.672-2.934 5.995-3.256s2.55 2.432 2.73 2.825-1.69.036-2.622.18c-.933.142-2.082 1.36-2.405 1.573-.323.215-1.472-.215-2.657-.286-1.185-.072-2.262.537-2.98.537s-1.58-1.575-2.73-1.933c-1.148-.358-1.83 1.18-2.62 1.538-.79.358-1.472-.93-2.406-1.073-.934-.143-2.19.894-2.73 1.896s.468 1.073.755 1.002c.287-.072 1.005-1.395 1.76-1.574.753-.18 1.723 1.038 3.087 1.145 1.364.108 1.544-1.394 1.76-1.573s1.974 1.467 2.872 1.932c.898.464 1.94-.36 3.447-.43s2.047.358 3.232.143 1.508-1.538 2.693-1.682c1.185-.142 1.652 1.003 2.334.895.682-.107.323-1.038.467-1.073.143-.036 3.123 4.043 3.733 4.08.61.035 1.472-1.86 1.472-1.86s1.15-.538 2.19-.86c1.04-.322 1.005.394 1.472.787.467.393 1.364.142 1.83-.144.468-.286 2.3.215 2.3.215s.717 4.616.717 5.046c0 .43 1.005.43 1.472.286s-.18-1.932-1.22-8.443c-1.04-6.514-1.686-6.37-2.117-6.442zm.86 7.835c-.467.143-1.83-.036-2.262.143-.43.18-.61.322-.79.25-.18-.072-.575-.644-1.185-.716-.61-.072-1.436-.322-1.436-.322 0-.107 2.118-2.97 2.657-3.792s1.4-1.717 1.58-1.574c.18.143 1.903 5.868 1.436 6.01zm-.394 12.057c-1.4-1.11-3.375-1.467-3.375-1.467s.037-1.968.073-2.182c.036-.214.61-.786.61-.786s.646.107.934.107.287 0 .575-.428c.287-.43-.108-1.18-1.113-1.503-1.006-.323-2.335.214-2.98.5-.647.286-.863.75-.61 1.36s1.076.68 1.076.68v2.004s-2.047-.215-3.59-.25c-1.545-.036-3.268.93-3.268.93s-.754-1.18-1.724-2.004-1.472-1.252-4.776-2.004c-3.303-.75-7.145.823-7.145.823s-.467-.323-1.472-.68c-1.004-.36-2.836-.61-2.836-.61l.18-1.537.826-.465c.826-.465.79-.75.395-1.18-.395-.43-1.257-.18-1.257-.18s-.61-.716-1.436-.537c-.826.18-1.15.788-1.04 1.396s.968.716.968.716l-.072 1.896s-1.975.286-3.95.93-3.088 1.682-3.95 2.433-.898 1.504-.898 1.504c-.036.25.754.43 1.04.43.288 0 1.437-1.86 4.525-3.042s5.673-.93 7.433-.286c1.76.644 3.41 2.47 3.806 2.934.395.465 1.113-.18 1.4-.5.287-.323-2.298-2.148-2.298-2.148s1.616-.894 5.35-.5 5.89 3.22 5.89 3.22-.288.32-.396.357c-.108.035.215.607.61.75.395.143.682-.286 2.585-.894 1.903-.608 1.975-.358 5.17-.143 3.197.215 5.207 2.648 5.315 2.648s.36-.035.646-.5c.288-.466.18-.68-1.22-1.79z"/></svg>