<svg xmlns="http://www.w3.org/2000/svg" viewBox="0 0 64 64" enable-background="new 0 0 64 64"><path d="M53.783 34.642c-.454-.18-.227-.77-.09-1.54.135-.77-.637-2.04-1.273-3.08-.636-1.043-2.498-1.587-3.815-2.04-1.317-.453-3.043-.317-4.77-.09-1.725.225-1.77-.41-4.632-.907-2.86-.498-6.45.86-6.677 1.042s-1.635-2.084-3.36-2.628c-1.727-.545-6.042 1.04-6.905 1.358-.862.317 0 0-2.134-.09s-3.86.724-5.087 3.533.635 3.082.635 3.082c-3.293-.125-4.304.94-5.7 2.265-1.397 1.325-1.805 5.674-1.5 8.325.308 2.65.853 5.063 3.44 7.1s5.18 2.515 8.142 2.176c2.964-.34 3.61-2.243 3.68-2.48s.544-.204.782.068.987 1.36 2.554 2.21 5.484-.715 6.166-.782 2.01 1.63 3.372 1.903c1.363.272 3.168-.442 3.78-.68.614-.238.853.748 1.227 2.21.374 1.46.544 3.703.544 3.94 0 .238.443.646.92.374.477-.27.477-.984.41-2.683-.07-1.7-.546-4.145-1.125-4.893-.58-.748-1.704-.748-2.01-.68-.308.068-1.057-4.145-1.09-4.247-.035-.102-.82 0-.853.136-.034.136 1.26 4.145 1.328 4.28s-.92.375-1.09.375c-.17 0-1.192-4.825-1.26-4.96s-.68-.035-.75.1c-.067.137 1.33 4.826 1.364 5.03.033.204-1.466-.136-1.772-.374-.307-.238-1.022-4.45-1.158-4.825s-.92-.205-1.022-.07 1.26 4.18 1.192 4.384c-.068.204-1.43-.95-1.567-1.053-.136-.1-.068-1.392-.068-1.562s-.715-1.36-.852-1.495c-.136-.136-.307-.068-.545.204-.238.272.545 1.087.613 1.257s.103 1.563.07 1.7c-.035.135-1.875.1-2.147.1s-.41-1.052-.51-1.46c-.103-.408-.444-.374-.75-.102-.307.272.477 1.87.477 1.87s-1.226.34-2.01.033-1.6-.748-1.942-2.48c-.34-1.733 1.09-4.28 1.226-4.69.136-.407-.75-.51-.988-.51s-1.022 2.006-1.6 1.938c-.58-.068-.75-1.835-.99-1.97-.237-.137-1.362.033-1.464.51-.102.475.954 3.465.92 4.076-.034.61-.102.984-.34 1.154-.24.17-2.726-4.587-2.726-4.587s-.375-.102-.545.204c-.17.307 2.794 4.69 2.828 4.86.034.17-.58 1.087-.852 1.12-.273.035-2.146-3.193-2.316-3.43s-.58.135-.715.305c-.136.17 2.146 3.296 2.384 3.568s-.546.442-.853.442c-.307 0-2.18-2.514-2.384-2.82-.204-.306-.477-.034-.613.17-.136.204 1.805 2.888 1.805 2.888h-.204c-.203 0-1.09 0-2.93-.78s-3.644-2.006-4.19-3.16c-.544-1.156-1.362-4.656-1.225-7.136.136-2.48.75-4.145 2.18-4.995 1.43-.85 3.44-1.19 4.258-1.29.818-.103 1.09-.51 1.022-.986-.068-.476-.68-1.393-.68-2.277s1.907-2.617 2.35-2.753c.442-.136 2.145.442 3.814.204 1.668-.237 4.564-1.426 5.143-1.528.58-.102 2.827 1.97 2.827 2.175 0 .204-.34.34-.477.476-.136.136-.477.578-.647 1.937-.17 1.36.102 2.514.75 2.854.646.34 1.293.578 2.01.17.714-.408.17-.95-.274-1.12s-.68-.137-.886-.952c-.204-.815.307-2.107 1.26-2.718.954-.612 3.032-1.19 5.076-1.325 2.044-.137 4.905 1.29 5.825 1.29.92 0 2.998-.34 3.577-.34.58 0 .92.34 1.6.646s.784.034 2.01 1.325c1.227 1.292.784 3.535.716 3.773-.068.238-.51.578-1.124.917-.613.34-.852 1.257-.852 1.257s-1.124.476-1.77.612-2.454-.035-2.828.033c-.375.068-.443.748-.375 1.053.07.306 1.057.408 1.5.442s.17.68 0 1.29c-.17.613.34.545.75.545s1.498-1.087 3.882-2.786 2.42-1.87 2.76-2.04c.34-.17 1.94.103 2.656 1.496.715 1.393.238 3.194.136 3.296s-1.908-2.31-2.078-2.447c-.17-.136-.375.034-.443.306-.068.27 2.214 2.82 2.282 2.99.068.17-.273 1.392-.443 1.664-.17.272-2.146-2.412-2.282-2.616-.136-.204-.375.272-.443.442-.068.17 2.52 3.024 2.52 3.024s-.51 1.63-.544 1.733-2.52-3.534-2.657-3.67-.783.17-.818.374c-.034.205 2.827 3.33 2.93 3.773.102.442-.647 1.02-.954.985-.307-.034-2.078-2.31-2.282-2.548s-.818.238-.92.374c-.102.136 2.487 2.616 2.69 2.922.205.306-.476.78-.612.78s-2.35-2.615-2.52-2.82c-.17-.203-.58.103-.682.41-.102.305 2.657 3.023 2.657 3.023s.136.543-.034.814c-.17.272-.476.408-.714.442s-2.52-3.058-2.725-3.126c-.203-.068-.544.272-.476.578.068.306 2.657 2.82 2.657 2.82s-.748.815-.92 2.005c-.17 1.19.512 2.446.716 2.752s1.033.08 1.397-.238c.363-.317-.318-2.356-.046-3.08.273-.726.91-.68 1.726-1.27.818-.588.41-1.132.727-1.902.318-.77.318-.498 1.136-1.133.818-.634 1-.95 2.135-4.394 1.137-3.443 1.137-5.844.365-7.61-.768-1.774-3.538-1.865-3.992-2.046zm-40.196 4.61c-.41.34-.783 1.937-.545 3.602.238 1.665 1.397 2.344 1.5 2.344.1 0 .476-.204.408-.51-.068-.306-.34-.034-.852-1.223-.51-1.19.034-3.5 0-3.772-.034-.272-.358-.568-.51-.44zm7.05-8.733c-.782 2.038-.067 3.193.376 3.77s1.6 1.054 1.908.986c.308-.068.308-.204.07-.306-.24-.102-.308-.136-1.26-.95s-.682-2.72-.546-3.06-.435-.728-.546-.44zm9.642 8.698c-.308 0-.853-.034-1.67-.442-.818-.408-2.146-1.495-2.895-1.427-.75.067-2.242 1.318-2.282 1.562-.034.204.34.442.58.442.237 0 .34-.068.544-.34.204-.272.954-.815 1.703-.78.75.033 2.76 1.29 3.168 1.46s.647.102.954 0c.305-.103.203-.476-.103-.476zm.952 4.892c.41-.408 1.363-.714 2.044-.714s2.93 1.7 3.304 2.005c.375.307.375-.135.58-.34.203-.203 0-.237-1.227-.814-1.226-.578-2.214-1.767-2.964-1.767s-2.438 1.253-2.454 1.392c-.033.306.308.646.716.238zm12.263-1.936c.238-.238.102-.612-.886-1.19-.99-.577-3.135-1.528-4.532-1.902-1.397-.374-1.543-1.288-1.737-1.223-.306.1-.442.68-.442.68s-.17.68.954 1.154c1.124.476 3.032 1.053 4.462 1.427 1.432.374 1.943 1.29 2.18 1.054zm.205 5.232c-.17.068-.477 0-.477.272s.58.578 1.294 1.257c.715.68.273 2.107.238 2.243s.102.17.443-.068.307-.748.034-1.733c-.272-.985-1.183-2.11-1.532-1.97zM38.215 31.03c.988-.647 1.26.203 1.5.237s0 0 .1-.374-.578-.95-.953-1.02c-.375-.067-.75.41-1.294.75-.545.34-.886.407-1.26.645-.375.238-.818.612-.852 1.223-.034.613.582.975.68.952.444-.102 0-.748.17-1.155.172-.41.922-.612 1.91-1.258zm8.482 4.722c.273.068.443-.17.852-.85.408-.68.476-1.902-.648-2.31-1.124-.407-1.942-.067-2.146.17-.204.24.212.584.477.51 1.226-.34 1.67.17 1.737.75.068.577-.545 1.222-.68 1.392s.135.27.407.338zM43.46 25.83c.82.102 3.544-3.092 3.748-3.364.204-.272-1.192-.646-1.5-.714-.306-.068 3.987-6.184 3.884-7-.102-.814-2.146-.543-2.623-.68s1.6-5.74 1.77-6.455c.17-.714-3.338-.612-3.747-.544-.41.068-2.657 8.97-2.59 9.514s1.977.646 2.317.68-1.124 3.84-1.124 3.84-.68-.137-1.294-.205c-.613-.068-.307 1.427.068 2.888.376 1.463 1.09 2.04 1.09 2.04zM63.424 9.555c-1.022-2.073-2.83-2.276-3.236-2.243-.41.034-.58.442-.58.578 0 .136.205.17.58.136s.58.102.988.238c.41.136 1.84 1.8 2.078 2.65.238.85-.477 1.937-.954 2.073-.478.136-.376-.136-.546-.476-.17-.34-.75-1.324-1.805-2.106-1.057-.78-2.385-.17-2.59.374-.204.544.238 1.495 1.465 2.548s2.282.917 2.384.985.306 1.972.306 2.21-.273.476-.613.272c-.34-.204-.375-.646-.613-1.325s-2.623-1.02-3.51-.408c-.885.61-.203 1.766.92 2.276 1.125.51 2.045.306 2.147.306s.34.238.375.714c.034.476-.307 1.12-.58 1.087-.272-.034-.237-.476-1.43-1.19-1.192-.713-3.134-.78-3.543-.27s.067 1.392 1.19 2.208c1.125.816 2.794.782 3.067.782.273 0 .136.612-.136 1.393-.272.78-.85 1.223-1.327 1.223s-1.84-1.597-2.282-1.733c-.442-.136-1.19.578-.885 1.223.307.646 1.908 1.19 2.112 1.36.204.17.307.577.34.95.035.374-.272 1.02-1.293 1.393s-1.363-.34-1.6-.78c-.24-.442-1.057-.17-.955.374s.272 1.325 1.327 1.563c1.056.238 1.942-.068 2.86-.85.92-.78.648-2.48.648-2.48s.58-.203 1.567-1.086c.988-.882.613-2.717.613-2.717s.238-.238.954-1.223c.714-.985.374-1.733.374-1.733s.886-.17 1.328-.985c.443-.815-.273-3.058-.273-3.058s.578-.102 1.09-.544c.51-.443 1.055-1.632.033-3.705zm-2.385 3.568c-.34.78-2.384-1.02-2.214-1.937.062-.33 2.555 1.155 2.214 1.937zm-1.362 3.907c-.375.102-2.146-.17-2.078-1.325.017-.292 1.533-.068 1.908.238.374.306.545.985.17 1.087zm-1.43 3.33c-.648-.068-2.658-.985-1.943-1.7.347-.346 1.5.205 2.01.647.51.44.58 1.12-.068 1.053zM11.85 18.73c.375 0 1.533-1.156 1.533-1.156s1.5 3.296 1.567 3.5c.068.204-1.294.985-1.6 1.257-.308.273 4.087 2.65 4.36 2.48.272-.17 1.02-5.198.953-5.333s-1.567.544-1.77.68c-.205.136-2.01-7.27-2.454-7.373-.444-.102-2.35 1.495-2.454 1.7S9.363 8.57 8.92 8.263c-.443-.306-3.386 2.01-3.27 2.243.205.407 5.825 8.222 6.2 8.222zM22.648 6.02c.273 0 .886-.305 2.42-.916 1.532-.612 3.542-.136 3.984.34.443.476 0 1.7 0 1.7h-.886c-.68 0-1.158.203-2.93 1.188s-1.976 2.073-1.533 2.48 1.363.612 3.51-.238 2.145-2.412 2.145-2.412.41.68.41 1.427-.41 1.086-.478 1.256c-.068.17-.988.102-1.6.17-.614.068-1.295.476-2.42 1.155-1.124.68-1.43 1.598-1.09 1.836s.92 0 2.555-.238c1.635-.238 2.52-1.63 2.76-1.63s1.02.373 1.02 1.426-.68 1.7-.782 1.733c-.102.034-.238.034-.818.17s-2.18.714-3.066 1.393c-.887.68-1.023 1.563-.342 1.8.68.24 1.465.307 2.86-.373 1.398-.68 1.977-2.073 1.977-2.073s1.26.136 1.635.985.238 1.664-1.022 3.125c-1.26 1.46-4.054 2.412-4.054 2.412s.034.51.34.646c.308.136 1.5-.374 3-1.393 1.498-1.02 2.826-2.378 2.93-4.145.1-1.767-2.25-2.446-2.25-2.446s.58-.918.75-2.278-1.6-1.97-1.6-1.97.544-.816.578-1.87-.886-1.767-.886-1.767.613-1.053.477-1.767-.58-1.393-2.76-1.7-4.773.857-5.075 1.258c-.203.274-.032.715.24.715zm4.02 3.91c-.886.34-1.124.44-1.5.203-.258-.164.853-1.36 1.67-1.8.818-.443 1.226-.51 1.465-.205.238.306-.75 1.46-1.635 1.8zm1.396 2.105c-.204.408-.92.95-1.397 1.087-.477.136-1.09.272-1.056-.068.012-.107 1.125-.917 1.5-1.12.375-.204 1.16-.306.954.1zm.75 4.825c-.443.374-2.146 1.12-2.42.883-.09-.08.75-.815 1.432-1.087s1.43-.17.988.204zM8.546 24.845s.204-1.46.273-3.092c.067-1.63-2.726-1.325-2.726-1.325s.204-.374.34-1.53c.137-1.154-1.668-1.766-1.668-1.766v-.442s-.273-1.19-1.533-1.563c-1.26-.374-2.42.34-2.42.34-.237.204-.237.78.137.917.375.136 1.192-.51 2.18-.476s.476 1.292.476 1.292l-.545.204C2.517 17.608.575 18.73.098 19.58c-.477.848.886.814 2.044.475 1.16-.34 2.045-2.073 2.045-2.073s.818.374.954.578c.135.204 0 2.21 0 2.21s-1.738.51-3.407 1.494-1.703 2.21-1.5 2.548c.205.34 1.125.815 3-.034 1.873-.85 2.383-3.228 2.383-3.228s.68-.204.988-.238 1.022 0 1.294.78c.273.782-.613 2.65-.613 2.65s-2.657 1.19-3.51 2.006-.306 1.427.478 1.733c.783.307 1.056-.203 2.146-.848 1.09-.646 1.396-1.937 1.396-1.937s1.022-.068 1.397.238.307.883-.375 2.005c-.68 1.12-2.282 2.548-2.42 2.718-.135.17.17.612.614.646s.17 0 .886-.78 2.214-3.195 2.248-4.282c.035-1.09-1.6-1.395-1.6-1.395zm-5.28-1.053c-.818.51-1.294.68-1.67.306-.274-.274-.1-.985.99-1.563s1.43-.78 1.668-.578c.238.204-.17 1.325-.988 1.835zm2.35 3.533c-.68.306-.613.306-.886.136-.09-.056-.136-.51.375-.882.51-.374 1.226-.782 1.33-.578.1.204-.138 1.02-.82 1.325z"/></svg>