<?xml version="1.0" encoding="UTF-8"?>
<svg xmlns="http://www.w3.org/2000/svg" xmlns:xlink="http://www.w3.org/1999/xlink" viewBox="0 0 64 64" version="1.1" width="512px" height="512px">
<g id="surface1">
<path style=" fill:#5DBC9D;" d="M 54.585938 61 L 9.414063 61 C 8.523438 61 8.078125 59.921875 8.707031 59.292969 L 13.828125 54.171875 C 14.578125 53.421875 15.597656 53 16.65625 53 L 47.34375 53 C 48.402344 53 49.421875 53.421875 50.171875 54.171875 L 55.289063 59.292969 C 55.921875 59.921875 55.476563 61 54.585938 61 Z "/>
<path style=" fill:#72CAAF;" d="M 59 49 L 5 49 C 3.894531 49 3 48.105469 3 47 L 3 7 C 3 5.894531 3.894531 5 5 5 L 59 5 C 60.105469 5 61 5.894531 61 7 L 61 47 C 61 48.105469 60.105469 49 59 49 Z "/>
<path style=" fill:#C5E4FA;" d="M 9 11 L 55 11 L 55 43 L 9 43 Z "/>
<path style=" fill:#72CAAF;" d="M 38 57 L 26 57 C 25.449219 57 25 56.550781 25 56 L 25 49 L 39 49 L 39 56 C 39 56.550781 38.550781 57 38 57 Z "/>
<path style=" fill:#5DBC9D;" d="M 25 49 L 39 49 L 39 53 L 25 53 Z "/>
<path style=" fill:#E3F2FF;" d="M 37.929688 43 L 56 24.929688 L 56 11 L 53.855469 11 L 21.855469 43 Z "/>
<path style=" fill:#E3F2FF;" d="M 11.144531 43 L 17.570313 43 L 49.570313 11 L 43.144531 11 Z "/>
<path style=" fill:#E3F2FF;" d="M 38.859375 11 L 10 39.859375 L 10 34.5 L 33.5 11 Z "/>
<path style=" fill:#8D6C9F;" d="M 59 4 L 5 4 C 3.347656 4 2 5.347656 2 7 L 2 47 C 2 48.652344 3.347656 50 5 50 L 24 50 L 24 52 L 16.660156 52 C 15.320313 52 14.070313 52.519531 13.121094 53.460938 L 8 58.589844 C 7.429688 59.160156 7.261719 60.019531 7.570313 60.769531 C 7.878906 61.519531 8.601563 62 9.410156 62 L 54.589844 62 C 55.398438 62 56.121094 61.519531 56.429688 60.769531 C 56.738281 60.019531 56.570313 59.160156 56 58.589844 L 50.878906 53.460938 C 49.929688 52.519531 48.679688 52 47.339844 52 L 40 52 L 40 50 L 59 50 C 60.652344 50 62 48.652344 62 47 L 62 7 C 62 5.347656 60.652344 4 59 4 Z M 47.339844 54 C 48.128906 54 48.910156 54.320313 49.460938 54.878906 L 54.589844 60 L 9.410156 60 L 14.539063 54.878906 C 15.089844 54.320313 15.871094 54 16.660156 54 L 24 54 L 24 56 C 24 57.101563 24.898438 58 26 58 L 38 58 C 39.101563 58 40 57.101563 40 56 L 40 54 Z M 38 52 L 38 56 L 26 56 L 26 50 L 38 50 Z M 60 47 C 60 47.550781 59.550781 48 59 48 L 5 48 C 4.449219 48 4 47.550781 4 47 L 4 7 C 4 6.449219 4.449219 6 5 6 L 59 6 C 59.550781 6 60 6.449219 60 7 Z "/>
<path style=" fill:#8D6C9F;" d="M 55 10 L 9 10 C 8.449219 10 8 10.445313 8 11 L 8 43 C 8 43.554688 8.449219 44 9 44 L 55 44 C 55.550781 44 56 43.554688 56 43 L 56 11 C 56 10.445313 55.550781 10 55 10 Z M 54 42 L 10 42 L 10 12 L 54 12 Z "/>
<path style=" fill:#8D6C9F;" d="M 17 36 C 16.449219 36 16 36.445313 16 37 L 16 39 C 16 39.554688 16.449219 40 17 40 C 17.550781 40 18 39.554688 18 39 L 18 37 C 18 36.445313 17.550781 36 17 36 Z "/>
<path style=" fill:#8D6C9F;" d="M 12 40 C 12.550781 40 13 39.554688 13 39 L 13 37 C 13 36.445313 12.550781 36 12 36 C 11.449219 36 11 36.445313 11 37 L 11 39 C 11 39.554688 11.449219 40 12 40 Z "/>
<path style=" fill:#8D6C9F;" d="M 22 36 C 21.449219 36 21 36.445313 21 37 L 21 39 C 21 39.554688 21.449219 40 22 40 C 22.550781 40 23 39.554688 23 39 L 23 37 C 23 36.445313 22.550781 36 22 36 Z "/>
<path style=" fill:#8D6C9F;" d="M 27 40 C 27.550781 40 28 39.554688 28 39 L 28 37 C 28 36.445313 27.550781 36 27 36 C 26.449219 36 26 36.445313 26 37 L 26 39 C 26 39.554688 26.449219 40 27 40 Z "/>
<path style=" fill:#8D6C9F;" d="M 32 40 C 32.550781 40 33 39.554688 33 39 L 33 37 C 33 36.445313 32.550781 36 32 36 C 31.449219 36 31 36.445313 31 37 L 31 39 C 31 39.554688 31.449219 40 32 40 Z "/>
<path style=" fill:#8D6C9F;" d="M 42 36 C 41.449219 36 41 36.445313 41 37 L 41 39 C 41 39.554688 41.449219 40 42 40 C 42.550781 40 43 39.554688 43 39 L 43 37 C 43 36.445313 42.550781 36 42 36 Z "/>
<path style=" fill:#8D6C9F;" d="M 37 40 C 37.550781 40 38 39.554688 38 39 L 38 37 C 38 36.445313 37.550781 36 37 36 C 36.449219 36 36 36.445313 36 37 L 36 39 C 36 39.554688 36.449219 40 37 40 Z "/>
<path style=" fill:#8D6C9F;" d="M 47 36 C 46.449219 36 46 36.445313 46 37 L 46 39 C 46 39.554688 46.449219 40 47 40 C 47.550781 40 48 39.554688 48 39 L 48 37 C 48 36.445313 47.550781 36 47 36 Z "/>
<path style=" fill:#8D6C9F;" d="M 52 40 C 52.550781 40 53 39.554688 53 39 L 53 37 C 53 36.445313 52.550781 36 52 36 C 51.449219 36 51 36.445313 51 37 L 51 39 C 51 39.554688 51.449219 40 52 40 Z "/>
<path style=" fill:#8D6C9F;" d="M 39.292969 33.707031 C 39.488281 33.902344 39.742188 34 40 34 C 40.257813 34 40.511719 33.902344 40.707031 33.707031 L 48.707031 25.707031 C 49.097656 25.316406 49.097656 24.683594 48.707031 24.292969 L 40.707031 16.292969 C 40.316406 15.902344 39.683594 15.902344 39.292969 16.292969 C 38.902344 16.683594 38.902344 17.316406 39.292969 17.707031 L 46.585938 25 L 39.292969 32.292969 C 38.902344 32.683594 38.902344 33.316406 39.292969 33.707031 Z "/>
<path style=" fill:#8D6C9F;" d="M 23.292969 33.707031 C 23.488281 33.902344 23.742188 34 24 34 C 24.257813 34 24.511719 33.902344 24.707031 33.707031 C 25.097656 33.316406 25.097656 32.683594 24.707031 32.292969 L 17.414063 25 L 24.707031 17.707031 C 25.097656 17.316406 25.097656 16.683594 24.707031 16.292969 C 24.316406 15.902344 23.683594 15.902344 23.292969 16.292969 L 15.292969 24.292969 C 14.902344 24.683594 14.902344 25.316406 15.292969 25.707031 Z "/>
<path style=" fill:#FFF8F8;" d="M 26.503906 18.996094 L 27.738281 21.261719 L 30.003906 22.496094 L 27.738281 23.734375 L 26.503906 26 L 25.265625 23.734375 L 23 22.496094 L 25.265625 21.261719 Z "/>
<path style=" fill:#FFF8F8;" d="M 48.417969 15.160156 L 49.273438 16.726563 L 50.839844 17.582031 L 49.273438 18.4375 L 48.417969 20 L 47.5625 18.4375 L 46 17.582031 L 47.5625 16.726563 Z "/>
<path style=" fill:#FFF8F8;" d="M 34.648438 32.703125 L 35.230469 33.769531 L 36.296875 34.351563 L 35.230469 34.933594 L 34.648438 36 L 34.066406 34.933594 L 33 34.351563 L 34.066406 33.769531 Z "/>
</g>
</svg>
