<svg xmlns="http://www.w3.org/2000/svg" viewBox="0 0 64 64" enable-background="new 0 0 64 64"><path d="M47.29 26.525c.187-.152.255-.405-.085-1.653s-.73-2.21-2.124-4.25c-1.393-2.04-4.676-3.192-4.826-3.154-.935.236-.136.86.595 1.332.73.472 1.936 1.13 3.5 3.036s1.666 4.1 1.835 4.52c.17.422.918.32 1.105.17zM35.58 29.14c-.543-.052-1.885 2.107-2.106 2.192-.22.084-.153-.1-.544-.455-.39-.354-1.24-1.585-2.005-1.552-.765.034-1.852 1.636-1.97 1.636-.12 0-.256-.083-.766-.438s-1.887.135-2.26.455c-.375.32-.154 1.046-.07 1.214.086.17.868 3.442 1.446 5.432.578 1.99.697 3.997.782 4.217s.75.51.952.54c.46.066.986-.288 1.19-.59.204-.305-.187-1.907-.663-4.37-.476-2.46-1.53-4.924-1.41-5.093.118-.17.237.084.407.152.17.066.34.066.867-.102.528-.17.698-.658.953-1.113.255-.455.374-.54.714-.523.34.017.442.675.9 1.23s.664 1.097 1.616 1.013c.952-.084 1.92-2.243 2.175-2.412.255-.17.408.455.408.894 0 .44-.34 1.653-.612 3.61s-.986 5.177-.816 5.835 1.41.59 1.852.422c.442-.17.527-1.62.867-4.537.34-2.918.714-5.768.595-6.09-.122-.32-1.958-1.517-2.5-1.568zm-1.937 28.554c-.204.017-.68.388-.765.573-.085.186 1.428 1.636 1.53 1.687.102.05.374-.337.46-.49.084-.15-1.15-1.776-1.225-1.77zM17.65 31.6c-.73-2.006.12-3.676.256-4.485.136-.81-.612-.64-.986-.506s-.612.707-.748 1.99c-.136 1.28.085 2.967.714 4.654.63 1.687 1.672 2.114 1.818 2.16.272.083.578-.17.578-.17s.017-.17-.102-.405c-.12-.236-.8-1.23-1.53-3.24zm28.824 7.41c1.428-1.686 2.175-3.102 3.104-6.903.93-3.8.16-5.982-.5-8.68-.656-2.7-1.29-3.78-3.83-6.635-2.537-2.856-5.21-4.633-8.7-5.892-3.49-1.26-7.252-1.034-10.243-.135-2.99.9-5.438 2.36-7.818 4.498s-3.535 4.003-4.532 6.162c-.997 2.16-1.7 5.892-1.382 8.05.317 2.16.748 5.106 2.357 7.804 1.61 2.698 5.257 5.15 7.025 5.89s2.296.705 2.357.856c.045.112-.634.855-.838 1.282-.204.427.952 1.664 1.61 2.36.656.698-.273.99-.84 1.8-.565.81-.362 1.732-.226 1.957.136.225 1.042.855 1.27 1.214.226.36-.41.944-.84 1.64-.43.698-.452.99-.27 1.598.18.607 1.155.607 1.427.697.272.09.09.315-.023.63-.113.315-.34.742-.136 1.687.204.945 1.654 1.934 4.192 3.35 2.538 1.418 1.79 1.71 3.127 1.755 1.337.045 1.042-.315 1.858-.832.816-.517 1.654-1.394 3.195-2.496 1.54-1.103 2.493-1.755 3.104-2.7s-.09-1.574-.385-1.867c-.295-.292-.09-.36 0-.585.09-.225.453-.225.748-1.102.295-.877.272-1.552.204-2.024-.07-.472-.636-.742-.794-.9s.113-.765.52-1.08c.41-.314.885-.9.84-1.753s-.522-.81-1.043-1.148c-.52-.337-.5-.562-.453-1.08.045-.516-.045-1.326.52-2.225.567-.9.296-1.08.296-1.08s.59-.27 1.61-.944c1.02-.675 2.06-1.485 3.488-3.172zm-7.636 9.56c-.09.134-.657.066-.657.516s.273 1.192-.022 1.35c-.295.156-1.088.29-1.065.63.023.336.884 2.18 1.11 2.833.227.65.34.674.18.764s-.158.247-.248.09-.793-1.732-.974-1.732c-.18 0-1.155.337-.792.675.363.337 1.224 2.564 1.314 2.7.09.134.748 1.1.657 1.236-.092.135-.545.675-.613.607-.068-.067-1.382-2.88-1.632-2.968-.25-.09-1.133.09-.952.495.18.405 1.722 2.9 1.654 2.99-.068.09-.52.338-.59.248-.067-.09-1.2-2.9-1.45-2.9-.248 0-.86.494-.77.674.092.18 1.723 2.698 1.565 2.878-.16.18-.838.742-.997.742-.16 0-.204-.27-.5-.27-.294 0-1.313-.135-1.653-.27-.34-.135-1.178-.652-1.45-.472-.272.18-1.088.36-1.382.337-.295-.022-1.178-.742-1.496-1.057-.317-.315-.453-.855-.363-.99.092-.134.658-.99.794-.944.136.045 2.04.607 3.104.585 1.065-.023 1.314-.27 1.314-.518 0-.247.045-.517-.408-.517-.453 0-2.425-.157-3.83-.562-1.405-.405-2.175-.765-2.062-.967.113-.202.838-1.934 1.2-1.844.364.09 2.38.72 3.808.9 1.428.18 2.946.292 3.218.247.272-.046.453-.496.295-.608-.16-.112-2.085-.45-3.33-.652-1.247-.202-3.083-.652-4.057-1.17-.974-.516-1.45-.83-1.405-.99.046-.156.68-1.866.885-1.82.204.044 2.085.494 4.577.786 2.493.292 3.014.292 3.218.202s.204-.54 0-.697c-.204-.156-1.654-.29-4.056-.63-2.402-.336-3.422-.54-3.444-.65-.023-.113.453-.428.16-.698-.296-.27-1.202-.945-1.474-1.35-.272-.404-.317-.584-.25-.764.07-.18.454-.81.454-.81s2.22.36 2.855.315c.634-.045.884-.045.974.112.09.157.566.495.77.517.203.022 1.63.517 3.85.292 2.222-.225 3.513-.855 3.513-.855s-.227 1.888-.113 2.495c.113.607.136.922.34 1.102.205.18.32.247.228.382zM36.3 43.89c-1.745.45-3.444.18-5.348-.09-1.903-.27-5.552-.516-9.495-2.09-1.9-.76-3.104-2.226-4.51-4.093-1.404-1.867-2.174-4.07-2.718-6.86-.545-2.788-.024-4.407.294-6.386.317-1.978 1.2-3.665 2.515-5.486 1.313-1.822 2.854-3.486 5.143-4.835 2.29-1.35 4.85-2.497 7.614-2.767 2.765-.27 6.73.9 8.815 1.957 2.085 1.057 5.1 3.216 6.91 5.937 1.814 2.72 2.448 3.598 2.88 6.926.43 3.328.203 5.892-.998 8.95-1.2 3.058-3.172 4.745-5.12 6.094-1.95 1.35-4.24 2.295-5.984 2.744zm-24.156-3.316c-.595-.354-.935-.405-2.226.084-1.292.49-2.838 1.602-3.467 2.715-.628 1.113.237 1.696.766 1.77.952.136 1.394-.252 1.97-.606.58-.354 2.533-2.108 3.01-2.682.475-.572.543-.926-.052-1.28zM8.048 29.392c-.255-.354-1.207-.405-2.056-.118-.85.287-2.975 1.543-3.484 2.108-.578.64-.63 1.4-.323 1.94.306.54.884.793 1.632.59s2.566-1.265 3.416-1.94 1.07-2.226.815-2.58zm-3.84-12.48c.747.454 2.684.994 3.602 1.13.918.134 1.767-.12 1.903-.693s-.17-.726-.9-1.25c-.732-.522-3.587-2.754-4.063-2.53-2.6 1.233-1.29 2.885-.543 3.34zm14.53-9.143c.578.303 2.21-.085 2.413-.27.205-.187.086-1.215-.492-1.873-.578-.658-2.667-3.42-3.4-3.205-1.936.573-1.784 2.007-1.342 2.614.443.608 2.244 2.43 2.822 2.733zM33.405 6.35c.68.27 1.003-.253 1.428-.877s.782-2.614.816-3.255.254-1.046-.562-1.653-2.022-.945-2.566.135-.102 4.368.017 4.756.515.755.865.894zm15.857 6.494c1.156-.64 2.498-1.467 3.433-3.22.935-1.755-.085-2.683-1.564-2.278-1.478.405-3.687 4.554-3.857 4.84-.17.288-.127.885.068 1.064.443.404.766.235 1.922-.406zm11.98 11.334c-.458-.388-1.444-.186-2.582.337-1.14.523-5.73 2.818-5.744 3.39-.034 1.265 1.105.894 2.702.607 1.598-.287 5.15-1.164 6-1.788.85-.623.084-2.158-.375-2.546zm-3.28 15.973c-.662-.44-4.634-2.365-5.098-1.957-.153.135-1.598 1.3-1.615 1.855-.018.558 2.514 1.79 3.89 2.362 1.378.573 2.618.945 3.35.135.73-.81.136-1.956-.527-2.394zM46.747 44.2c-.374-.117-1.156.068-1.343.288-.187.22-.408.826.136 1.602.543.776 2.055 3.49 2.582 3.76.527.27 1.224.035 1.852-.336.63-.37.578-.86.39-1.248-.185-.388-3.503-4.03-3.618-4.065z"/></svg>