<svg xmlns="http://www.w3.org/2000/svg" width="64" height="64" viewBox="0 0 64 64"><path d="M4.843 19.24c1.944 1.244 5.646 1.29 8.052 1.106 2.406-.184 6.155-3.135 6.386-8.3.233-5.164-3.47-7.885-3.47-7.885C11.37.38 5.26 2.55 3.965 3.33 2.668 4.116-.802 7.25.17 11.54s2.352 6.212 4.673 7.7zM3.12 5.81c.953-1.338 2.984-2.733 6.905-2.145s5.032 2.282 6.074 3.908.97 3.078.97 3.078-2.534-4.355-2.915-4.286c-.382.07-.937.795-.66 1.245.277.45 3.16 4.287 3.055 4.564-.103.277-.207 1.072-.346.865s-2.43-4.29-2.742-4.22c-.312.07-.73.553-.52 1.107.207.553 2.706 3.908 2.602 4.046s-.555.76-.694.553c-.14-.207-2.048-3.977-2.43-3.873-.38.104-.693.52-.45 1.14.243.623 2.29 3.32 2.152 3.494-.14.173-.52.553-.694.45-.174-.104-2.152-3.285-2.464-3.25-.312.034-.937.69-.59 1.106.347.415 2.117 2.663 1.91 2.767-.21.103-1.528.345-1.736.276-.208-.07-1.18-2.248-1.492-2.248s-.972.484-.868.9c.104.414 1.32 1.45.972 1.59-.347.138-3.922-.38-5.518-1.522S.308 9.752 3.12 5.81zm2.394 8.023c.278-.277.243-.38.243-.726s-.937-1.004-1.11-1.557c-.174-.553-.035-2.18.763-3.01s1.006-1.382.347-1.66c-.66-.275-2.082.59-2.395 2.422s0 3.424.555 4.115 1.31.7 1.597.416zM8.95 26.628c-.694-.208-4.442-.208-4.894-.138s-.59 5.187-.52 5.74c.068.554 0 1.42.45 1.453 0 0 .764.104.972.035.208-.07.347-5.153.45-5.533.105-.38 3.82-.07 3.992-.242.175-.174.244-1.108-.45-1.315zm8.99-3.147c-1.39-.517-8.573-.69-11.038-.724s-5.264-.097-5.622.484c-.278.45-.14 10.408-.278 16.944S.447 56.68.655 57.06s4.2 3.216 4.512 3.458c.312.242 1.11.346 3.228.31 2.117-.034 9.024.312 9.857.105s1.77-.52 2.048-1.107c.278-.588.347-3.597.486-10.41s1.145-15.872.972-19.47-2.43-5.946-3.82-6.465h.002zm.068 8.544c-.208-.07-2.152-3.285-2.5-2.905-.346.38-.45.725-.034 1.35.416.62 2.395 3.63 2.43 3.975.034.346.103 2.04-.036 2.04s-2.5-3.77-2.776-3.63-.555.76-.486.967 3.09 4.15 3.158 4.842c.07.692 0 1.695-.14 1.522-.138-.173-2.36-4.565-2.74-4.357-.383.206-.73 1.002-.417 1.52.312.52 2.985 4.288 3.054 4.496.07.207 0 1.867-.172 1.764-.174-.105-2.464-4.358-2.81-4.324-.348.035-.695.9-.556 1.383.14.482 3.402 4.736 3.333 5.22-.07.484-.035 2.317-.208 2.213-.174-.104-2.88-5.014-3.124-5.084-.242-.07-.728.864-.59 1.244.14.38 3.576 6.017 3.61 6.5.035.485 0 3.148-.243 3.01s-3.332-6.225-3.852-6.26c-.52-.034-.59 1.038-.486 1.35.103.31 4.06 6.432 4.164 6.778s0 .692-.382.865-.555.138-.59.035c-.035-.104-3.054-5.395-3.54-5.568s-.833.553-.798.726c.035.174 3.68 4.946 3.332 5.257s-1.32.346-1.562.104c-.243-.24-3.262-5.462-3.61-5.462-.346 0-1.04.9-.797 1.14.242.243 3.192 4.428 2.914 4.428s-1.25.31-1.492.104-2.568-4.116-2.95-4.082c-.382.035-.73.484-.694.588s2.36 3.25 2.082 3.32-1.25.07-1.423-.035C6.9 56.96 5.41 54.09 5.13 54.02s-.867.52-.867.692c0 .173 1.84 2.282 1.423 2.386-.416.104-2.534-.104-2.672-.173-.14-.07-.868-.83-.902-1.487-.035-.657.208-30.432.52-31.02.105-.196 6.18.07 9.337.31 3.156.243 5.24-.172 5.69.38.45.554.59 3.32.416 3.148-.174-.173-1.388-2.56-1.805-2.455-.415.104-.73.934-.52 1.383.208.45 2.22 3.32 2.325 3.666.106.344.14 1.243-.068 1.174zM63.75 35.24c-.31-4.324-2.706-7.644-6.073-9.788s-9.058-2.732-12.91-1.937-7.914 4.323-8.053 4.288-.035-2.974-.14-3.7-1.422-.622-4.72-.657-7.75.02-7.808.277c-.174.76.14 15.908.174 21.372s-.243 11.447 0 12.138c.243.692 2.464 3.25 3.297 3.25s8.885-.137 10.238-.31c1.354-.173 1.388-1.452 1.388-3.216s-.035-15.078.555-19.262 3.922-5.74 6.63-5.05c2.706.693 3.157 3.7 3.713 7.367.557 3.666-.484 14.075-.52 15.216s.14 4.46.765 4.703c.625.244 10.1.037 11.488-.033s1.874-.242 2.082-1.176c.21-.933.21-19.157-.103-23.48h-.002zm-5.09-2.468c.117.184 3.263 5.21 3.263 5.625s-.046 1.43-.162 1.314c-.114-.113-2.173-3.963-2.566-3.963s-.902.807-.74 1.13 3.124 4.795 3.147 5.14c.024.347.07 2.445-.045 2.26-.116-.184-2.707-4.772-2.962-4.772s-.532.784-.532 1.153c0 .37 3.31 5.44 3.333 5.602.023.16 0 3.342-.278 3.296-.278-.046-1.25-1.66-2.105-3.48-.857-1.822-.973-2.353-1.39-2.26-.415.092-.277 1.475-.184 1.82.093.347 3.285 5.672 3.332 5.95.046.276.093 2.65-.185 2.443-.278-.21-3.1-6.296-3.447-6.34-.347-.048-.787.966-.694 1.15.093.185 3.54 5.95 3.633 6.78.093.83 0 1.29-.255 1.29-.254 0-.37-.16-.486-.39-.116-.233-3.24-5.535-3.4-5.558-.163-.023-.65.968-.464 1.268.185.3 3.008 4.474 2.846 4.52s-1.342.046-1.48-.046c-.14-.092-2.523-3.712-2.685-3.712-.16 0-.785.784-.67.99.117.208 2.014 2.606 1.783 2.675-.23.07-1.134.092-1.273-.046s-1.528-2.65-1.875-2.626c-.347.023-.648.738-.578.876s1.41 1.913 1.04 2.005c-.37.092-1.526.16-1.526.023s.604-4.565.65-8.346c.046-3.78-.23-7.816-.65-10.398-.414-2.582-.692-5.05-2.52-6.063-1.83-1.012-4.975-1.52-7.404-.02-2.43 1.5-3.31 3.134-3.68 3.665-.37.53-.415 1.153-.415 1.153s-1.272-2.26-1.757-1.637c-.486.623-.532 1.015-.347 1.177.185.16 1.55 1.314 1.596 1.798.047.484.163 2.86.047 2.86s-1.736-3.183-2.106-2.998c-.37.184-.463 1.383-.416 1.522.046.137 2.082 3.02 2.105 3.39.024.367 0 2.073-.092 2.004-.092-.07-2.29-3.988-2.5-3.896-.206.092-.646.83-.6 1.107.046.277 3.24 5.026 3.26 5.256.025.23 0 2.86-.206 2.86s-2.775-5.21-2.96-5.21c-.186 0-.81.99-.74 1.29.068.3 3.562 5.626 3.655 5.995.092.37.115 3.158 0 3.158s-3.68-7.285-3.91-7.285-.88.945-.834 1.037c.046.092 3.84 6.64 3.84 6.94s-.092.368-.092.368-.278.092-.347-.023c-.07-.116-3.077-5.004-3.355-5.073-.278-.07-.995.715-.833.945s3.123 4.035 3.007 4.196c-.116.16-1.458.092-1.596 0-.14-.092-2.313-3.965-2.567-3.92-.255.047-.88.946-.834 1.06.045.116 2.13 2.93 2.105 2.998-.023.07-1.18.138-1.296.023-.117-.117-1.92-2.953-2.36-3s-.718.923-.58 1.038c.14.114 1.69 2.143 1.41 2.143-.276 0-2.312.14-2.36-.37-.044-.505.395-10.373.37-13.646-.02-3.274-.345-17.29-.183-18.052.034-.16 6.502-.023 7.59-.046 1.086-.023 1.78.023 1.873.16.093.14-.046 5.396.324 5.58.37.184 1.366-.807 1.667-1.06.3-.254 1.76-1.568 5.068-3.112 3.31-1.545 7.82-1.867 10.11-1.36s4.767 1.222 6.41 3.412c1.643 2.19 2.8 4.058 3.1 5.233.3 1.176.3 2.213.14 2.167-.163-.046-2.083-4.772-2.615-4.657-.536.116-.675 1.337-.56 1.522h-.003zm-26.098-6.294c-.37-.23-4.373-.16-4.65-.16-.28 0-.44.483-.394.668 0 0-.093.553.093.807s3.426.138 3.773.138.393 1.708.44 2.054c.046.346 1.18.092 1.342.07.162-.024.162-.554.162-1.315s-.394-2.03-.765-2.262zm13.304 1.96c-.347.207-.44 1.014.162 1.268s3.24.83 4.627 1.937c1.388 1.107 1.435 4.288 1.458 4.61.023.324.95.577 1.365.116.416-.463.23-2.72-1.273-5.328-1.504-2.605-6.08-2.76-6.34-2.604z"/></svg>