<svg xmlns="http://www.w3.org/2000/svg" viewBox="0 0 64 64" enable-background="new 0 0 64 64"><path d="M51.325 4.662c-1.58-1.645-4.957-3.505-9.053-4.292S31.782.227 31.208.692s-3.413 4.9-3.413 4.9-2.335.823-2.982 2.003c-.647 1.18-.898 1.967-1.33 3.54-.43 1.575.648 1.825.648 1.825s-.933 1.896-2.873 5.65-9.843 21.283-10.13 22.177-1.006 2.29-1.114 3.362c-.108 1.072.503 13.734 1.006 15.737.502 2.003 1.94 3.613 3.124 3.97 1.185.358 1.832.107 5.1-1.574s12.933-7.368 14.155-8.12c1.22-.75 1.292-.965 2.657-3.147S47.912 24.69 47.912 24.69s.467.322 1.22-.072 1.582-2.396 2.085-4.328c.503-1.93-.467-2.647-.647-3.255s3.233-6.295 3.413-7.082-1.078-3.646-2.658-5.29zM21.76 23.548c3.843-7.69 4.74-10.087 5.136-10.552.458-.54 1.76-.5 4.06-.465s3.555.68 3.52.788c-.036.107-11.316 23.178-12.753 26.433-1.437 3.256-2.55 4.83-2.73 4.794-.18-.036-1.257-1.788-3.34-1.896-2.085-.107-2.587.036-2.587-.18s4.85-11.23 8.693-18.92zm14.333-9.765c.108-.107 2.227.286 3.7 1.037s2.658 2.003 2.55 2.182c-.107.18-9.052 18.313-11.782 23.5s-3.448 7.01-3.663 7.046-1.868-2.182-3.34-2.432c-1.474-.25-2.803-.608-2.803-.608s8.12-16.275 10.597-21.068 4.492-9.407 4.743-9.657zm-6.538 38.344c-.395.393-8.226 4.936-8.262 4.65-.036-.286-.25-.93-.79-.823-.54.107-2.335 1.002-3.772.036s-2.406-2.396-2.8-2.36c-.396.035-.935.32-.935.32-.036-.178-.862-8.94-.61-9.478s1.903-1.037 3.376-.465c1.474.572 2.085 1.788 2.695 1.93.61.144 2.838-.5 4.706.538 1.87 1.037 2.408 3.613 2.91 3.684s2.228-.25 3.02.357.86 1.216.465 1.61zm15.088-25.432s-1.4-4.972-1.652-4.972-1.04.215-.86.858c.18.645 1.975 5.044 1.83 5.438-.143.393-.717 2.182-.753 1.967-.036-.215-1.473-5.115-1.688-5.15-.217-.037-.9.643-.684 1.108s1.904 4.614 1.868 4.972c-.036.358-.216 1.252-.323 1.252-.107 0-1.867-5.043-2.118-5.008s-.97.214-.826.714c.144.5 2.3 5.15 2.155 5.616-.143.465-.86 2.36-1.04 2.075-.18-.286-1.618-5.258-1.94-5.294-.324-.035-.684 1.038-.684 1.038s2.227 5.15 2.155 5.473-1.005 2.433-1.04 2.254-1.474-6.26-1.833-6.26c-.36 0-.97.502-.826.895.145.392 2.156 6.044 2.156 6.545 0 .5-.718 1.824-.79 1.538-.072-.286-1.688-5.938-1.796-5.938-.108 0-.898 1.037-.79 1.288.108.25 2.19 5.473 2.12 5.794-.073.322-.755 1.824-.755 1.824s-1.617-5.65-1.94-5.722c-.323-.072-.718.823-.683 1.073.036.25 2.084 5.903 1.94 6.19-.144.285-.61 1.358-.826 1.25-.216-.106-1.976-5.436-2.084-5.436-.108 0-.754.894-.683 1.216.07.322 2.406 5.294 2.118 5.973-.287.68-.575 1.717-.718 1.36-.144-.36-1.868-4.687-2.335-4.758-.467-.072-.862.5-.754.787.11.286 2.3 4.65 2.12 4.865-.18.215-.575.715-1.114.25-.54-.465-.647-2.218-1.617-2.54s-2.05-.393-2.013-.537c.036-.143 5.065-10.158 8.8-17.956s5.785-11.875 6.755-12.805c.13-.125.862.93.826 1.144-.036.215-.323.572.108 2.218.43 1.645.683 2.36.826 2.325.144-.036.287-.036.287-.322 0-.286-.145-1.43 0-1.467.143-.036.61.93.61 1.037s-1.507 3.83-1.507 3.83zm5.03-6.867c-.252.787-1.186 2.97-1.438 2.86-.25-.106-.467-1.68-2.048-4.005s-2.838-4.042-7.15-5.866-9.627-1.717-10.632-1.68c-1.006.035-3.197.32-3.27.178-.08-.16-.035-1.288.396-2.182.432-.894 1.222-1.86 2.3-2.218 1.078-.358 5.424-.644 9.09.68 3.663 1.323 7.327 4.078 9.95 7.44 2.622 3.362 3.054 4.006 2.802 4.793zm1.76-10.05s-1.618-2.254-1.94-2.183c-.324.072-.9.5-.684.787.215.286 2.226 2.325 1.975 2.683-.25.358-.503 1.288-.647 1.18-.144-.107-2.084-2.575-2.443-2.575-.36 0-1.114.572-.79.966.323.393 2.586 2.253 2.55 2.61s-.394 1.396-.646 1.324-4.024-5.58-8.48-7.333-9.41-2.04-9.41-2.04c0-.178 1.796-2.86 2.19-3.075.396-.215 6.036-1.323 11.28 1.11s7.33 5.972 7.222 6.187l-.18.357zm-24.788 8.94c.144-.285 1.976-3.576 2.263-4.112s-.647-.322-.97-.286c-.323.036-1.545 3.005-1.868 3.9-.323.893-.202 1.44-.108 1.5.216.143.54-.715.683-1zm5.1-10.765c-.933-.107-3.34-.107-3.52.107-.18.215-.898 1.967-.898 1.967-.25.393.97.322 1.185.322s.288-1.038.576-1.11c.287-.072 2.335.107 2.766.25.43.143.683-.537.826-.93.144-.393 0-.5-.934-.607z"/></svg>