<svg xmlns="http://www.w3.org/2000/svg" viewBox="0 0 64 64" enable-background="new 0 0 64 64"><path d="M61.572 33.29c-.775-2.705-2.52-3.67-5.282-3.768-2.762-.097-5.09 3.14-5.913 3.478-.824.338-1.357.048-1.842-.87-.485-.917-.436-4.2.145-7.148.582-2.946-.194-3.912-.824-6.424-.63-2.512-4.313-2.318-6.833-2.415-2.52-.097-6.106.048-7.22-1.014-1.116-1.064 1.307-5.556 1.84-8.357.534-2.8-1.986-7.004-7.462-6.762S21.64 1.8 19.895 3.73c-1.745 1.932-.048 5.265.775 5.94.823.677 1.647 2.03 1.647 3.092s-1.212 2.705-3.635 2.946c-2.423.24-6.252-.097-8.433-.338s-3.878.87-5.768 2.318-1.454 6.28-1.405 9.902c.048 3.623 0 4.3 1.26 5.796 1.26 1.497 5.655.552 6.833-.048 2.18-1.11 2.57-4.057 4.022-4.492 1.454-.435 2.132.87 3.247 3.574 1.114 2.705.29 6.23-.05 7.487-.338 1.256-2.76 2.222-4.264 1.932-1.502-.29-2.23-2.947-3.053-3.575-.824-.628-1.987-.386-3.974 1.063s-2.57 3.043-2.666 4.927c-.097 1.884 0 13.38.34 15.36.338 1.98.726 2.705 3.198 3.623 2.472.918 4.943.773 10.323.725 5.38-.048 5.96-.773 6.93-1.352.97-.58 1.163-2.27.872-3.718-.29-1.45-1.26-1.787-2.86-2.705-1.598-.918-2.18-.773-3.488-2.03-1.31-1.255-.583-5.457.338-6.278.92-.822 3.247-2.03 5.09-2.078 1.84-.048 3.682.53 5.718 2.608s.872 5.506.485 6.183c-.387.676-1.744 1.642-2.277 2.898-.533 1.257-.194 3.77.485 4.3.68.53 2.278 1.208 5.428 1.45 3.15.24 8.142.096 11.437-.677 3.296-.773 3.538-4.395 3.538-5.94 0-1.547-.63-9.66-.774-11.207-.145-1.546.194-3.912.63-4.057s1.696 2.27 2.617 3.428c.92 1.16 2.18.82 4.12.386 1.937-.435 4.02-2.463 4.7-4.154.676-1.692 1.064-5.025.29-7.73zm-2.375 6.376c-.29-.145-2.23-5.603-2.665-5.603-.436 0-1.212.676-.824 1.063.388.386 3.102 5.313 2.908 5.796-.194.483-.63 1.208-.775.82-.144-.385-1.84-4.684-2.228-4.684-.388 0-1.018.435-.727.82.29.387 2.18 4.252 1.94 4.493-.243.242-.534.58-.68.34-.144-.242-2.13-4.445-2.422-4.493-.29-.048-.92.242-.775.628.145.386 1.938 4.25 1.793 4.25-.144 0-.63.194-1.5-1.11-.873-1.304-1.02-2.657-2.57-3.043-1.55-.386-2.423.338-2.908.966-.485.628-1.163 2.608-1.018 4.395.145 1.787.194 6.617.194 6.617s-3.78-8.984-4.168-9.177c-.388-.193-.97.725-.824.82.145.098 5.04 9.806 5.04 10 0 .193.29 2.995.29 3.285 0 .29-.096 1.352-.24 1.256-.146-.097-5.43-11.06-5.817-11.254-.39-.193-.728.918-.728.918s4.313 8.55 4.846 9.467c.533.918 1.648 2.608 1.454 2.898-.194.29-.824.966-1.018.773-.194-.193-4.992-9.854-5.38-9.854-.387 0-.63 1.11-.484 1.45.145.337 5.186 8.983 5.04 9.08-.145.097-1.163.53-1.308.193-.145-.338-3.586-7.342-4.022-7.487s-.485.483-.436.82c.048.34 3.44 6.425 3.102 6.57s-1.066.29-1.26.145c-.194-.145-2.52-4.927-2.665-4.927-.144 0-.823.82-.63 1.16.195.337 1.94 3.863 1.697 3.863-.242 0-1.454.047-1.55-.194-.098-.24-1.746-2.753-1.746-2.753s-1.114.145-.63.82c.486.677 1.358 2.223.97 2.223-.388 0-3.635-.338-4.265-.628-.63-.29-1.115-2.318-.388-3.09.727-.774 3.635-2.416 2.617-6.908-1.018-4.492-3.005-5.265-6.3-6.472-3.295-1.208-6.833-.048-9.208 1.884s-2.52 6.23-2.035 8.115c.486 1.884 2.133 3.043 3.49 3.96 1.357.92 2.472.532 2.956 1.402.485.868.242 2.124-2.18 2.366-2.424.24-8.482.386-10.71-.193s-2.86-1.4-3.2-2.705c-.34-1.304-.048-13.428-.097-14.54-.05-1.11.968-3.477 2.18-3.428 1.212.048 1.842 2.8 2.908 3.188 1.066.386 3.295.725 5.864-.773 2.57-1.497 3.78-3.67 3.247-8.066-.534-4.396-1.746-6.86-3.636-7.874s-3.538-1.014-5.234.483c-1.696 1.496-1.648 3.332-2.617 4.008s-1.842.386-2.472.29c-.765-.118-1.404 0-1.744-1.932-.34-1.932.048-9.805.242-10.48.194-.677 1.502-2.175 3.538-2.03 2.035.145 5.282 1.014 8.82.435 3.538-.58 4.992-1.013 5.913-3.38.92-2.367.726-3.478-.34-4.83-1.067-1.357-2.23-2.42-2.133-3.772.097-1.352 2.084-3.912 5.912-3.72s7.026 1.885 5.718 4.928-3.44 6.28-2.326 8.646c1.115 2.367 2.132 2.56 3.925 2.705 1.793.145 8.045-.338 9.596.145 1.55.483 2.035 2.367 1.938 5.458-.096 3.09-1.453 6.328-.63 8.694.825 2.367 2.133 2.802 3.442 2.753s2.908-.628 4.07-1.787c1.164-1.16 2.473-2.463 4.023-2.125 1.55.338 2.035 2.174 2.278 3.912.243 1.74-.145 4.154-.436 4.01zM7.05 22.52c-.24.385-.338 5.41-.29 5.892.048.483.582.483 1.115.193s.048-2.705.097-3.526.29-1.353.678-1.595c.388-.24 1.163-.676.872-1.256s-2.24-.078-2.47.29zM31.817 7.447c.388-.29.388-1.4-.34-2.222-.726-.82-2.034-1.394-2.664-1.352-.727.048-.63.725-.63.725s.485.385 1.6 1.062.87 1.787.968 1.98c.096.193.678.096 1.066-.194zM10.492 58.214c-.68-.483-.194-4.395-.097-4.83.097-.435-1.116-.82-1.454-.483-.484.484-.435 5.46.292 6.618.727 1.16 2.714.87 3.2.82.484-.047.532-.675.193-1.158-.34-.483-1.455-.483-2.133-.966z"/></svg>