<svg xmlns="http://www.w3.org/2000/svg" viewBox="0 0 64 64" enable-background="new 0 0 64 64"><path d="M50.333 17.307c-3.278.405-6.994 1.418-7.13 1.418s-.17-.71-.946-2.06c-.777-1.35-2.095-5.774-4.393-9.826S34.79 1.773 31.782 1.2c-3.007-.574-3.818.506-4.866 1.655-1.047 1.148-3.514 6.112-5.812 10.873s-2.264 7.766-2.264 7.766c-.743-.1-6.758-.034-10.846.81C3.906 23.15 1 25.174 1 28.28s1.014 4.93 4.393 8.34c3.38 3.41 9.258 6.214 9.258 6.214s-.675 3.41-1.182 6.112c-.507 2.7-.507 4.018-.473 7.294.034 3.275-.203 4.997 2.196 6.55s3.65 1.284 7.4-1.248C26.343 59.01 33.2 51.345 33.2 51.345s9.563 6.45 12.91 8.138c3.344 1.688 5.642 1.384 7.466-.304 1.825-1.69 1.216-5.674.81-8.814-.404-3.14-2.804-9.76-2.804-10.096s.507-1.182 1.352-2.397c.845-1.216 4.798-7.16 5.947-10.13 1.15-2.97 2.738-6.348.575-9.083-2.162-2.738-5.845-1.758-9.122-1.353zm7.737 5.774c-.135.778-.372 1.25-.372 1.25s-1.25-3.107-1.487-3.14c-.236-.034-.844.304-.81.642.034.338 1.825 3.917 1.757 4.153-.068.236-.54 1.857-.676 1.79-.134-.068-2.33-4.187-2.635-4.255-.304-.068-.912.608-.743.844.17.236 2.77 4.457 2.737 4.76-.035.305-1.082 1.96-1.082 1.96s-2.534-5.27-2.77-5.302c-.238-.034-1.048.473-.846.81.203.338 2.94 5.234 2.805 5.47-.135.236-.608 1.384-.81 1.283s-2.028-4.052-2.366-4.255c-.337-.203-1.013.236-.844.71.17.472 2.636 4.39 2.534 4.693-.1.304-.845 1.587-1.08 1.52-.238-.07-2.468-4.762-2.806-4.762-.338 0-1.183.61-.81 1.014.37.405 2.87 4.356 2.804 4.626-.068.27-.473 1.688-.81 1.418-.34-.27-2.873-5.268-3.28-5.268s-.71.506-.64.743c.067.236 3.446 5.2 3.344 5.403-.1.203-.44 1.553-.068 2.06.372.507 2.027 4.795 2.703 8.475s1.284 6.383.135 8.004c-1.15 1.62-3.514.37-7.434-1.823s-10.17-6.887-11.05-7.022c-.878-.135-1.215.034-1.587.37-.37.34-1.215 1.588-1.824 2.23-.608.642-1.115 1.114-1.115 1.114s-1.993-5.268-2.263-5.268-.98.506-.912.71c.068.202 2.703 5.165 2.568 5.233-.135.068-1.183 1.52-1.318 1.384-.135-.134-2.33-5.47-2.568-5.47-.237 0-.81.643-.71.845.1.203 2.737 5.1 2.568 5.3-.17.204-1.047 1.25-1.183 1.082-.135-.17-2.095-5.436-2.433-5.403-.34.034-1.116.777-.846 1.013s2.77 4.694 2.534 5.03-.946 1.25-1.115 1.014c-.17-.235-2.027-4.895-2.33-4.93-.305-.033-.778.44-.71.61.067.168 2.5 4.86 2.263 5.132-.237.27-.98 1.114-1.115 1.047-.134-.07-1.25-3.715-1.824-3.952-.574-.236-.912.37-.912.507s1.926 4.052 1.656 4.255-.71.574-.845.37c-.135-.202-1.385-3.342-1.656-3.41s-.846.372-.744.54c.1.17 1.926 3.276 1.588 3.276-.338 0-1.858.1-2.703-1.486-.844-1.587-1.046-4.558-.776-7.97.27-3.41 2.06-8.238 2.13-9.285.067-1.047-.17-1.553-.812-1.857-.642-.304-5.643-2.06-8.887-5.234s-4.122-4.896-4.19-7.125 2.568-3.546 5.575-4.188c3.007-.642 10.576-1.013 11.15-1.114.574-.1.81-2.735 1.757-5.64.946-2.903 5.474-14.18 8.278-14.384.644-.047 2.365.27 3.615 1.486s2.298 3.073 2.298 3.073S33.066 6.4 32.898 6.4c-.17 0-.542.98 0 1.283s3.648 1.35 3.648 1.35 1.25 2.837 1.115 2.736c-.134-.102-3.952-2.162-4.155-1.892-.203.27-.27.912-.034 1.047.238.135 4.833 2.026 4.833 2.026s1.08 2.5.912 2.365c-.17-.135-4.46-2.43-4.764-2.195-.303.236-.134 1.08 0 1.08.136 0 5.137 2.196 5.137 2.196s.642 1.216.372 1.182c-.27-.034-4.596-1.418-4.732-1.317-.135.102-.203.946.068 1.014.27.068 5 1.216 5.068 1.317.068.102.71 2.6 1.453 2.6.743 0 .71-.1 4.09-.91 3.378-.81 7.365-1.115 9.156-1.048 1.79.068 2.264.608 2.67 1.25.405.64.472 1.822.337 2.6zM29.113 46.043c-.203-.068-.896.503-.88.642.035.27 1.69 3.613 1.826 3.748.134.135.303-.034.506-.405.202-.372-1.25-3.917-1.453-3.985zm12.67 5.673c.102.338 6.117 4.558 6.286 4.626.168.07 1.215-.505 1.08-.978s-6.54-4.745-6.69-4.66c-.237.135-.778.675-.676 1.013zm12.368-11.852c-1.925-.236-.64.98.373 3.377 1.014 2.397 1.284 5.03 1.385 5.47.1.44.676.27 1.014.1.338-.168.203-1.248-.372-3.578s-2.26-5.352-2.4-5.37zm-43.115 15.7c.44-.877-.98-.708-.98-.708-.338.37-1.352 1.486-1.183 4.153.17 2.668 1.08 4.525 1.385 4.862.304.338.946-.068 1.183-.304.237-.236-.237-.1-.946-3.005-.71-2.902.102-4.118.54-4.996zM7.96 26.29c-.844.033-2.804 1.113-2.635 2.768.17 1.655 1.38 3 1.622 3.14 1.216.71 1.825-.608 1.588-.878-.237-.27-.473-.1-.71-.135-.237-.034-.338-.068-.574-.71-.236-.64-.54-1.62-.27-2.194.27-.573 1.082-.54 1.623-.843.54-.304.202-1.182-.642-1.148zm8.617-6.788c.98-.338 1.622-3.242 1.858-3.68.237-.44-.304-.643-.777-.643-.473 0-1.622 2.734-1.994 3.14-.372.404-2.507-.082-2.636.033-.338.304-.44 1.013-.135 1.25.305.236 2.704.236 3.684-.1zM24.01 5.928c.575-1.553 1.86-3.748 2.67-4.83s.608-1.147.372-1.08c-.237.068-1.892 1.722-3.38 3.782s-2.11 3.34-1.756 3.85c.608.878 1.52-.17 2.095-1.722zm37.642 9.69c-1.352-1.383-5.795-1.235-5.98-1.147-.71.34-.61 1.217-.17 1.487.44.27 1.014-.135 1.892-.135.88 0 2.67.473 4.224 2.195 1.554 1.722.608 2.97.473 3.107-.134.135-.134.405.17.506.304.1 1.554-.304 1.723-1.553.17-1.25-.98-3.074-2.33-4.458z"/></svg>