<svg xmlns="http://www.w3.org/2000/svg" viewBox="0 0 64 64" enable-background="new 0 0 64 64"><path d="M12.04 14.134c-1.488.485-4.028 1.985-5.473 4.06-1.445 2.073-.237 3.964.044 4.146.614.397 1.402-.22 1.183-.882-.22-.662.044-1.5 1.05-3.044 1.008-1.544 3.285-2.47 3.986-2.912.7-.44 1.838-.31 1.532-1.103-.307-.795-.832-.75-2.32-.266zm6.657 7.06c-2.54 2.293-.7 4.543 1.62 4.63s3.065-1.896 2.715-3.087c-.35-1.19-2.548-3.157-4.335-1.544zM52.33 31.207c.788-.176 1.62-.794 2.934-3.485 1.314-2.69 1.49-5.647 1.27-6.618-.22-.97-1.55-1.263-1.927-.44-.263.573.088 2.91-.263 4.587-.35 1.676-2.277 3.706-2.978 4.853-.7 1.147.176 1.28.964 1.103zM31.31 21.28c-3.066 1.325-2.233 4.148-.35 4.678 1.883.53 3.372.265 3.81-2.162.437-2.426-2.098-3.103-3.46-2.515zm11.255.53c-4.292 2.736-.482 4.678 1.14 4.545 1.62-.132 3.02-.618 3.02-2.426 0-1.81-2.338-3.28-4.16-2.12zm4.685 25.192c2.058 1.19 5.255.75 7.75-.574s4.03-3.397 2.322-5.78c-1.708-2.38-7.445-1.455-7.445-1.455s1.49-.574 3.197-1.94c1.708-1.37 4.686-3.575 6.963-7.413s2.102-9.44.263-13.147c-1.84-3.706-6.22-9.132-10.86-11.735s-7.752-2.382-9.986-2.294c-2.233.088-5.912-.882-10.685-.618-4.774.265-8.98.838-15.723 3.706-6.743 2.867-11.122 8.47-11.91 10.103C.35 17.487-.703 21.37.655 25.65c1.358 4.278 1.883 6.176 7.84 11.426s14.1 5.647 22.64 5.69c8.54.045 16.73-2.602 16.73-2.602-4.03 1.94-2.673 5.647-.615 6.838zm5.343-5.426c.657.176.35.618.92.618.57 0 1.095-.265 1.358 0 .264.265.745.662-.743 1.28-1.49.617-3.46 1.852-4.773 1.41-.685-.23-1.796-1.058-.745-1.896 1.05-.84 3.326-1.59 3.983-1.412zM26.01 39.943l-.174-.088c-6.22-.31-11.693-1.632-15.897-4.897-4.205-3.265-5.43-5.603-6.7-10.456-1.27-4.853.174-8.162 3.108-10.853 2.934-2.692 5.912-5.516 13.707-7.633C27.85 3.9 36.39 4.737 41.47 5.707s8.058 1.5 13.138 7.457 4.38 10.5 3.766 12.882c-.613 2.382-3.197 7.103-8.19 9.485-4.992 2.384-15.415 5.163-24.173 4.413zm35.444 8.53c-2.16-.97-4.16-.984-6.715-.206-3.475 1.06-2.833 3.294-2.424 4.353.41 1.06 1.693 3.118 5.022 3.56 3.328.44 5.635-.942 6.394-3.12.758-2.176-.118-3.617-2.278-4.587zm-3.445 4.91c-3.242.207-3.475-1.5-3.066-2.176.41-.676 1.985-1 2.657-1.088 1.804-.238 3.3.5 3.388 1.323.086.824.262 1.736-2.98 1.94zm-6.25 3.237c-1.692-.647-4.17-.403-5.458.088-1.927.735-1.87 2.353-1.226 3.265.642.912 2.336 1.823 4.38 2 2.043.176 3.794-.5 4.116-2.147.32-1.647-.118-2.56-1.81-3.206zm-.846 2.56c-.32.852-1.693.793-2.57.5-.875-.295-1.284-1.354 1.08-1.648.76-.095 1.812.294 1.49 1.147z"/></svg>